HIERARCHY
ROOT Hips
{
	OFFSET	0.00	0.00	0.00
	CHANNELS 6 Xposition Yposition Zposition Zrotation Xrotation Yrotation
	JOINT LeftUpLeg
	{
		OFFSET	 0.126116	-0.014019	-0.065224
		CHANNELS 3 Zrotation Xrotation Yrotation
		JOINT LeftLeg
		{
			OFFSET	 0.000000	 0.000000	 0.569914
			CHANNELS 3 Zrotation Xrotation Yrotation
			JOINT LeftFoot
			{
				OFFSET	 0.000000	 0.000000	 0.544423
				CHANNELS 3 Zrotation Xrotation Yrotation
				JOINT LeftToeBase
				{
					OFFSET	 0.000000	 0.000000	 0.207117
					CHANNELS 3 Zrotation Xrotation Yrotation
					End Site
					{
						OFFSET	 0.000000	 0.000000	 0.207117
					}
				}
			}
		}
	}
	JOINT RightUpLeg
	{
		OFFSET	-0.124023	-0.008373	-0.065224
		CHANNELS 3 Zrotation Xrotation Yrotation
		JOINT RightLeg
		{
			OFFSET	 0.000000	 0.000000	 0.570047
			CHANNELS 3 Zrotation Xrotation Yrotation
			JOINT RightFoot
			{
				OFFSET	 0.000000	 0.000000	 0.544354
				CHANNELS 3 Zrotation Xrotation Yrotation
				JOINT RightToeBase
				{
					OFFSET	 0.000000	 0.000000	 0.207540
					CHANNELS 3 Zrotation Xrotation Yrotation
					End Site
					{
						OFFSET	 0.000000	 0.000000	 0.207540
					}
				}
			}
		}
	}
	JOINT Spine
	{
		OFFSET	 0.000184	-0.007763	 0.117403
		CHANNELS 3 Zrotation Xrotation Yrotation
		JOINT Spine1
		{
			OFFSET	 0.000000	 0.000000	 0.137269
			CHANNELS 3 Zrotation Xrotation Yrotation
			JOINT Spine2
			{
				OFFSET	 0.000000	 0.000000	 0.156879
				CHANNELS 3 Zrotation Xrotation Yrotation
				JOINT LeftShoulder
				{
					OFFSET	 0.080501	-0.002496	 0.160144
					CHANNELS 3 Zrotation Xrotation Yrotation
					JOINT LeftArm
					{
						OFFSET	 0.000000	 0.000000	 0.164363
						CHANNELS 3 Zrotation Xrotation Yrotation
						JOINT LeftForeArm
						{
							OFFSET	 0.000000	 0.000000	 0.364576
							CHANNELS 3 Zrotation Xrotation Yrotation
							JOINT LeftHand
							{
								OFFSET	 0.000000	 0.000000	 0.360812
								CHANNELS 3 Zrotation Xrotation Yrotation
								JOINT LeftHandIndex1
								{
									OFFSET	 0.000000	 0.000000	 0.086006
									CHANNELS 3 Zrotation Xrotation Yrotation
									JOINT LeftHandIndex2
									{
										OFFSET	 0.000000	 0.000000	 0.047236
										CHANNELS 3 Zrotation Xrotation Yrotation
										JOINT LeftHandIndex3
										{
											OFFSET	-0.004284	-0.000551	 0.038166
											CHANNELS 3 Zrotation Xrotation Yrotation
											End Site
											{
												OFFSET	-0.004284	-0.000551	 0.038166
											}
										}
									}
								}
							}
						}
					}
				}
				JOINT Neck
				{
					OFFSET	 0.000000	 0.000000	 0.176489
					CHANNELS 3 Zrotation Xrotation Yrotation
					JOINT Head
					{
						OFFSET	 0.000000	-0.001747	 0.077940
						CHANNELS 3 Zrotation Xrotation Yrotation
						End Site
						{
							OFFSET	 0.000000	-0.001747	 0.077940
						}
					}
				}
				JOINT RightShoulder
				{
					OFFSET	-0.080363	 0.000306	 0.159706
					CHANNELS 3 Zrotation Xrotation Yrotation
					JOINT RightArm
					{
						OFFSET	 0.000000	 0.000000	 0.164196
						CHANNELS 3 Zrotation Xrotation Yrotation
						JOINT RightForeArm
						{
							OFFSET	 0.000000	 0.000000	 0.365611
							CHANNELS 3 Zrotation Xrotation Yrotation
							JOINT RightHand
							{
								OFFSET	 0.000000	 0.000000	 0.360648
								CHANNELS 3 Zrotation Xrotation Yrotation
								JOINT RightHandIndex1
								{
									OFFSET	 0.000000	 0.000000	 0.069977
									CHANNELS 3 Zrotation Xrotation Yrotation
									JOINT RightHandIndex2
									{
										OFFSET	 0.000000	 0.000000	 0.052305
										CHANNELS 3 Zrotation Xrotation Yrotation
										JOINT RightHandIndex3
										{
											OFFSET	 0.009002	-0.000782	 0.042196
											CHANNELS 3 Zrotation Xrotation Yrotation
											End Site
											{
												OFFSET	 0.009002	-0.000782	 0.042196
											}
										}
									}
								}
							}
						}
					}
				}
			}
		}
	}
}
MOTION
Frames:    12
Frame Time: 0.03333334
 4.540648	 0.007608	-1.418794	 102.550200	-2.222704	 1.054910	 7.379409	-6.190565	-179.757200	-1.936858	-36.780450	 1.840908	 4.023218	 87.818420	-2.123486	-2.378814	 29.922920	-0.032098	 0.661712	-23.977660	 179.488300	 34.836560	-78.666780	 38.133880	 5.452228	 86.641240	 1.372268	 2.381009	 29.180900	 0.017232	-1.919424	 4.754251	 0.280495	 1.064785	-0.897100	 1.204139	 2.253142	-3.460430	 0.216644	-91.816480	 77.485480	 179.078400	 36.038730	 65.590580	-45.541350	-9.278894	-4.027067	-26.152320	 3.966556	-2.120830	-5.363945	-3.812334	 37.924440	-2.927599	-2.450526	 36.184240	 0.754587	-1.378229	 35.397820	-2.634230	-0.243220	 4.040390	-1.167786	 0.732290	-11.302380	-1.859166	 89.795830	 79.341610	 179.731200	-42.178430	 71.226170	 45.584890	 1.295700	-7.224720	 23.394180	-13.683490	-3.234126	 9.571172	 6.437017	 35.671460	-0.771858	 2.830251	 35.756010	-7.813440	-2.350882	 35.473990	 5.254307
 4.572557	 0.017896	-1.422321	 102.700700	-2.169291	 0.606745	 7.049008	-4.499076	-179.227400	-2.056102	-36.625790	 1.680376	 5.147747	 89.010280	-3.522629	-2.376509	 30.360960	-0.041802	 1.163928	-26.973380	 179.405600	 27.574640	-76.255120	 31.038170	 10.052710	 89.189160	-2.971778	 2.379369	 29.515670	 0.024566	-2.095592	 4.874012	 0.724682	 0.942689	-0.955640	 1.168492	 2.309869	-3.540432	 0.223701	-91.808450	 77.779430	 178.985500	 35.965830	 64.551830	-46.572220	-9.150405	-4.096543	-27.815690	 3.734063	-2.106022	-5.367092	-3.812334	 37.924440	-2.927599	-2.450526	 36.184240	 0.754587	-1.378229	 35.397820	-2.634230	-0.291116	 4.017485	-1.511967	 0.880429	-11.403810	-1.572077	 89.796650	 79.046450	 179.610100	-41.992610	 71.288320	 44.684270	 1.488531	-7.417820	 24.637560	-13.381000	-3.219944	 9.579970	 6.437017	 35.671460	-0.771858	 2.830251	 35.756010	-7.813440	-2.350882	 35.473990	 5.254307
 4.612931	 0.030541	-1.425868	 102.899600	-2.074990	 0.021891	 6.399100	-1.731357	-178.358700	-2.583243	-35.139760	 1.178149	 19.399030	 89.920870	-18.469040	-2.376393	 30.382630	-0.042285	 1.668307	-30.114020	 179.496200	 19.792400	-71.796880	 23.219260	 179.403100	 89.044690	-172.022000	 2.378430	 29.703720	 0.028703	-2.246169	 4.914127	 1.329371	 0.844900	-1.053196	 1.130105	 2.383959	-3.656531	 0.233277	-91.793700	 78.162390	 178.886000	 35.614270	 63.365650	-47.678740	-8.951304	-4.249226	-29.650380	 3.663370	-2.114132	-5.365728	-3.812334	 37.924440	-2.927599	-2.450526	 36.184240	 0.754587	-1.378229	 35.397820	-2.634230	-0.322976	 4.057191	-1.945116	 1.044191	-11.624420	-1.257786	 89.791890	 78.664780	 179.513600	-41.789060	 71.378170	 43.690340	 1.705380	-7.586151	 25.901000	-13.048190	-3.208061	 9.587435	 6.437017	 35.671460	-0.771858	 2.830251	 35.756010	-7.813440	-2.350882	 35.473990	 5.254307
 4.660672	 0.044760	-1.428545	 103.122000	-1.713905	-0.581424	 5.996677	 2.316331	-177.398000	-3.088992	-31.391980	 0.943960	 17.635480	 89.803170	-17.029840	-2.375538	 30.542330	-0.045832	 1.999540	-32.807250	 179.749700	 13.522260	-64.858280	 16.503080	-174.497200	 88.949650	-177.820600	 2.377732	 29.842470	 0.031760	-2.365878	 4.830085	 2.025158	 0.772230	-1.173937	 1.087511	 2.446060	-3.790875	 0.242200	-91.772370	 78.598150	 178.786400	 35.046390	 62.174800	-48.759220	-8.670049	-4.489732	-31.326290	 3.802788	-2.101342	-5.367882	-3.812334	 37.924440	-2.927599	-2.450526	 36.184240	 0.754587	-1.378229	 35.397820	-2.634230	-0.362066	 4.186259	-2.406858	 1.178991	-11.952510	-1.054038	 89.782710	 78.228600	 179.461000	-41.651820	 71.510170	 42.872670	 1.909710	-7.690701	 26.863620	-12.768990	-3.200193	 9.592381	 6.437017	 35.671460	-0.771858	 2.830251	 35.756010	-7.813440	-2.350882	 35.473990	 5.254307
 4.705404	 0.057154	-1.430315	 103.273000	-1.312308	-0.838338	 6.163512	 6.733793	-177.002600	-3.460064	-26.250510	 1.046655	 8.506491	 89.136570	-7.665074	-2.369528	 31.594210	-0.069450	 2.242685	-34.469650	 179.740700	 10.104940	-57.487050	 12.473360	-161.448700	 89.350190	 169.491900	 2.383815	 28.577670	 0.004091	-2.407563	 4.647448	 2.345474	 0.791932	-1.278052	 1.069926	 2.513365	-3.874951	 0.250695	-91.761050	 78.800380	 178.756500	 34.675960	 61.227120	-49.673160	-8.645656	-4.500739	-32.409910	 3.622890	-2.118380	-5.365038	-3.812334	 37.924440	-2.927599	-2.450526	 36.184240	 0.754587	-1.378229	 35.397820	-2.634230	-0.351248	 4.317740	-2.723530	 1.244079	-12.184380	-0.999223	 89.778110	 78.032420	 179.447600	-41.564830	 71.681610	 42.414570	 2.038783	-7.711486	 27.163880	-12.662070	-3.197974	 9.593668	 6.437017	 35.671460	-0.771858	 2.830251	 35.756010	-7.813440	-2.350882	 35.473990	 5.254307
 4.754326	 0.069894	-1.432046	 103.427200	-0.850487	-1.030778	 7.112484	 12.723650	-176.911500	-3.758108	-18.263710	 1.407230	 4.585989	 86.578750	-2.440722	-2.357537	 33.441190	-0.111934	 2.672231	-35.330350	 179.708400	 7.440630	-49.617560	 9.310854	-144.762600	 89.584570	 152.946700	 2.388633	 27.442910	-0.020336	-2.380313	 4.338518	 2.566227	 0.904485	-1.424236	 1.100464	 2.651118	-3.932081	 0.265753	-91.755000	 78.906430	 178.747700	 34.369830	 60.564170	-50.423050	-8.648940	-4.507287	-33.000180	 3.531169	-2.112674	-5.366214	-3.812334	 37.924440	-2.927599	-2.450526	 36.184240	 0.754587	-1.378229	 35.397820	-2.634230	-0.254773	 4.401333	-3.000696	 1.342158	-12.302470	-0.946384	 89.775760	 77.927600	 179.457100	-41.429200	 71.934590	 42.130860	 2.082880	-7.661383	 26.777590	-12.751450	-3.201572	 9.591525	 6.437017	 35.671460	-0.771858	 2.830251	 35.756010	-7.813440	-2.350882	 35.473990	 5.254307
 4.803453	 0.082302	-1.434667	 103.699200	-0.776202	-1.247441	 8.253851	 18.438860	-176.801800	-4.043238	-11.619880	 1.570445	 3.542620	 84.085430	 0.305869	-2.335245	 36.282910	-0.180123	 3.123592	-35.861570	 179.776900	 4.980050	-42.904950	 6.707937	-157.951700	 89.460040	 165.623300	 2.380956	 29.192000	 0.017470	-2.391617	 4.159962	 2.719414	 1.020372	-1.518237	 1.155169	 2.823370	-3.950873	 0.283488	-91.752510	 78.943140	 178.727800	 34.369370	 60.276680	-51.187030	-8.675746	-4.502446	-32.985200	 3.524938	-2.112456	-5.366228	-3.812334	 37.924440	-2.927599	-2.450526	 36.184240	 0.754587	-1.378229	 35.397820	-2.634230	-0.146485	 4.367714	-3.196184	 1.478714	-12.238260	-0.811206	 89.774600	 77.890810	 179.428600	-41.271320	 72.252370	 42.041160	 1.981472	-7.534431	 25.646470	-13.073760	-3.211010	 9.585771	 6.437017	 35.671460	-0.771858	 2.830251	 35.756010	-7.813440	-2.350882	 35.473990	 5.254307
 4.853328	 0.092910	-1.436488	 104.160700	-0.866846	-1.290413	 8.317753	 20.967860	-177.488300	-3.620165	-11.610720	 1.637784	 4.119999	 84.005240	 0.051856	-2.306001	 39.284180	-0.256606	 3.219535	-35.522620	 179.697500	 3.317224	-38.630460	 5.036439	-171.808300	 89.142710	 178.711600	 2.370952	 31.087320	 0.059510	-2.534539	 4.275756	 2.561553	 1.053308	-1.542824	 1.159731	 2.967094	-3.928559	 0.297349	-91.756910	 78.859220	 178.696700	 34.864200	 60.338380	-52.139820	-8.635999	-4.498662	-32.339350	 3.631744	-2.118381	-5.364973	-3.812334	 37.924440	-2.927599	-2.450526	 36.184240	 0.754587	-1.378229	 35.397820	-2.634230	-0.110617	 4.248649	-3.245020	 1.606630	-12.035730	-0.566425	 89.775540	 77.969400	 179.336300	-40.830340	 72.653880	 41.693610	 1.892480	-7.368809	 24.264410	-13.488260	-3.224407	 9.577137	 6.437017	 35.671460	-0.771858	 2.830251	 35.756010	-7.813440	-2.350882	 35.473990	 5.254307
 4.908821	 0.103987	-1.438330	 104.634700	-0.964680	-1.252221	 8.483724	 23.717050	-178.525300	-2.768936	-11.590990	 1.773526	 5.005793	 82.869030	-0.111129	-2.266429	 42.552220	-0.346304	 3.074066	-34.742810	 179.457600	 2.974818	-37.317220	 4.579488	 176.709600	 89.254280	-170.103200	 2.368978	 31.425960	 0.067147	-2.671621	 4.242081	 2.299875	 1.090624	-1.487470	 1.106219	 3.085002	-3.839267	 0.306785	-91.761960	 78.765790	 178.656500	 35.657700	 60.787640	-52.845990	-8.535033	-4.479581	-31.000870	 3.846420	-2.103214	-5.367476	-3.812334	 37.924440	-2.927599	-2.450526	 36.184240	 0.754587	-1.378229	 35.397820	-2.634230	-0.108694	 4.164856	-3.233533	 1.700692	-11.756720	-0.210962	 89.777930	 78.064570	 179.295900	-39.869060	 73.145470	 40.658490	 1.844114	-7.166402	 22.781960	-13.934200	-3.241080	 9.565989	 6.437017	 35.671460	-0.771858	 2.830251	 35.756010	-7.813440	-2.350882	 35.473990	 5.254307
 4.974821	 0.115957	-1.440633	 105.078300	-1.143003	-1.117848	 8.919845	 26.698490	 179.983100	-1.842052	-11.566850	 1.926725	 5.654413	 80.037630	 0.171136	-2.200607	 46.786320	-0.475246	 2.808495	-33.474660	 178.940600	 4.265259	-38.849240	 5.484114	 11.412010	 89.207470	-4.149965	 2.378009	 29.787450	 0.030548	-2.718131	 3.759204	 2.029155	 1.220985	-1.370354	 0.982671	 3.237414	-3.630488	 0.316097	-91.764050	 78.724170	 178.606300	 36.676000	 61.708440	-52.982550	-8.455660	-4.375104	-28.906520	 4.073173	-2.101988	-5.367440	-3.812334	 37.924440	-2.927599	-2.450526	 36.184240	 0.754587	-1.378229	 35.397820	-2.634230	-0.047751	 4.257615	-3.281385	 1.802415	-11.420040	 0.339917	 89.779740	 78.117580	 179.346300	-38.294880	 73.643880	 38.665700	 1.724195	-6.909419	 21.189930	-14.387370	-3.261527	 9.551726	 6.437017	 35.671460	-0.771858	 2.830251	 35.756010	-7.813440	-2.350882	 35.473990	 5.254307
 5.034232	 0.126331	-1.441807	 105.605600	-1.477262	-0.905418	 9.466297	 29.064920	 178.400200	-1.126170	-11.549000	 2.032323	 5.658519	 75.653670	 1.015277	-2.144733	 49.642720	-0.572652	 2.192047	-32.088290	 178.132400	 6.444629	-41.293870	 6.968067	 7.449308	 86.986110	 0.718202	 2.388256	 27.537010	-0.018324	-2.807102	 3.321155	 1.627221	 1.335227	-1.236879	 0.842659	 3.398803	-3.370255	 0.324199	-91.770200	 78.621060	 178.553800	 37.567280	 62.836420	-52.466930	-8.374339	-4.295675	-27.041020	 4.339686	-2.112698	-5.364988	-3.812334	 37.924440	-2.927599	-2.450526	 36.184240	 0.754587	-1.378229	 35.397820	-2.634230	 0.010988	 4.441454	-3.196900	 1.920194	-11.078610	 0.763998	 89.782740	 78.226040	 179.363400	-36.551160	 73.968460	 36.367870	 1.605914	-6.662780	 19.923730	-14.691320	-3.280295	 9.538449	 6.437017	 35.671460	-0.771858	 2.830251	 35.756010	-7.813440	-2.350882	 35.473990	 5.254307
 5.104727	 0.138594	-1.440115	 106.248300	-2.068570	-0.862998	 9.217902	 29.752520	 177.145300	-1.376995	-14.574230	 1.953422	 4.849279	 68.502920	 0.927922	-2.119874	 50.760320	-0.613554	 1.609082	-30.431510	 177.573400	 7.080598	-44.443400	 7.574254	 6.322976	 84.639550	 1.433744	 2.397703	 24.769130	-0.076548	-2.839707	 3.055954	 1.323037	 1.521727	-1.069137	 0.776601	 3.629841	-3.049534	 0.336163	-91.777110	 78.512820	 178.528200	 38.338490	 64.573890	-51.148360	-8.414715	-4.232921	-24.892350	 4.768683	-2.136018	-5.358993	-3.812334	 37.924440	-2.927599	-2.450526	 36.184240	 0.754587	-1.378229	 35.397820	-2.634230	 0.142948	 4.505157	-3.114250	 2.062641	-10.477470	 1.113538	 89.785870	 78.342090	 179.371200	-34.819680	 74.161330	 34.126140	 1.455776	-6.365284	 18.608860	-14.938760	-3.307017	 9.520046	 6.437017	 35.671460	-0.771858	 2.830251	 35.756010	-7.813440	-2.350882	 35.473990	 5.254307
